<?xml version="1.0" encoding="UTF-8"?>
<!DOCTYPE svg PUBLIC "-//W3C//DTD SVG 1.1//EN" "http://www.w3.org/Graphics/SVG/1.1/DTD/svg11.dtd">
<!-- Creator: CorelDRAW X6 -->
<svg xmlns="http://www.w3.org/2000/svg" xml:space="preserve" width="220px" height="22px" version="1.1" style="shape-rendering:geometricPrecision; text-rendering:geometricPrecision; image-rendering:optimizeQuality; fill-rule:evenodd; clip-rule:evenodd"
viewBox="0 0 15415 1533"
 xmlns:xlink="http://www.w3.org/1999/xlink">
 <defs>
  <style type="text/css">
   <![CDATA[
    .fil0 {fill:#FEFEFE;fill-rule:nonzero}
   ]]>
  </style>
 </defs>
 <g id="Camada_x0020_1">
  <metadata id="CorelCorpID_0Corel-Layer"/>
  <path class="fil0" d="M979 1163l-143 0 -117 -309 -467 0 -110 309 -143 0 422 -1100 134 0 424 1100zm-302 -424l-173 -469c-5,-15 -11,-40 -17,-74l-3 0c-5,31 -11,56 -18,74l-171 469 381 0z"/>
  <path id="1" class="fil0" d="M1534 505c-22,-17 -54,-25 -95,-25 -54,0 -99,25 -135,76 -36,51 -54,120 -54,207l0 400 -126 0 0 -786 126 0 0 162 3 0c18,-55 45,-98 82,-129 37,-31 78,-46 124,-46 33,0 58,4 75,11l0 130z"/>
  <path id="2" class="fil0" d="M2341 1163l-126 0 0 -134 -3 0c-58,101 -149,152 -270,152 -98,0 -178,-35 -237,-106 -59,-70 -89,-166 -89,-287 0,-130 33,-234 98,-312 65,-78 153,-117 262,-117 108,0 186,42 236,127l3 0 0 -486 126 0 0 1163zm-126 -355l0 -116c0,-63 -21,-117 -63,-161 -42,-44 -95,-66 -160,-66 -77,0 -137,28 -181,84 -44,56 -66,134 -66,233 0,91 21,162 63,215 42,52 99,79 170,79 70,0 127,-25 171,-76 44,-51 65,-115 65,-192z"/>
  <path id="3" class="fil0" d="M3158 1163l-126 0 0 -123 -3 0c-55,94 -135,141 -242,141 -78,0 -140,-21 -184,-62 -44,-41 -66,-96 -66,-165 0,-147 86,-232 259,-256l235 -33c0,-134 -54,-200 -162,-200 -95,0 -180,32 -256,97l0 -129c77,-49 166,-74 267,-74 185,0 277,98 277,293l0 511zm-126 -398l-189 26c-58,8 -102,23 -132,43 -30,21 -45,57 -45,110 0,38 14,70 41,94 27,24 64,36 109,36 62,0 114,-22 155,-65 41,-44 61,-99 61,-166l0 -78z"/>
  <path id="4" class="fil0" d="M4794 1163l0 -781c0,-19 3,-73 8,-162l-3 0c-16,42 -29,74 -40,96l-392 847 -25 0 -393 -842c-13,-27 -25,-62 -36,-103l-4 0c4,49 5,98 5,146l0 799 -75 0 0 -1100 70 0 411 886c3,5 5,12 8,21 3,9 7,17 10,26 5,13 10,28 16,45l5 0 8 -24c1,-2 9,-26 26,-73l405 -880 67 0 0 1100 -72 0z"/>
  <path id="5" class="fil0" d="M5604 1163l0 -157 -3 0c-25,54 -61,96 -109,128 -48,32 -101,48 -159,48 -75,0 -134,-21 -177,-63 -43,-42 -65,-95 -65,-159 0,-137 91,-220 272,-248l242 -36c0,-169 -63,-253 -190,-253 -87,0 -171,35 -253,105l0 -85c29,-23 69,-43 119,-59 50,-17 97,-25 141,-25 81,0 144,25 188,75 44,50 67,123 67,219l0 511 -71 0zm-217 -391c-82,12 -140,31 -173,57 -33,26 -50,69 -50,128 0,47 15,85 46,115 31,30 74,45 129,45 76,0 139,-28 189,-84 50,-56 75,-128 75,-217l0 -77 -217 31z"/>
  <path id="6" class="fil0" d="M6445 1163l0 -457c0,-189 -68,-283 -204,-283 -76,0 -138,28 -186,83 -48,56 -73,124 -73,206l0 451 -71 0 0 -786 71 0 0 143 3 0c57,-108 147,-162 269,-162 85,0 150,28 195,85 45,56 68,137 68,242l0 478 -71 0z"/>
  <path id="7" class="fil0" d="M7221 1163l0 -157 -3 0c-25,54 -61,96 -109,128 -48,32 -101,48 -159,48 -75,0 -134,-21 -177,-63 -43,-42 -65,-95 -65,-159 0,-137 91,-220 272,-248l242 -36c0,-169 -63,-253 -190,-253 -87,0 -171,35 -253,105l0 -85c29,-23 69,-43 119,-59 50,-17 97,-25 141,-25 81,0 144,25 188,75 44,50 67,123 67,219l0 511 -71 0zm-217 -391c-82,12 -140,31 -173,57 -33,26 -50,69 -50,128 0,47 15,85 46,115 31,30 74,45 129,45 76,0 139,-28 189,-84 50,-56 75,-128 75,-217l0 -77 -217 31z"/>
  <path id="8" class="fil0" d="M8157 1105c0,148 -32,256 -97,325 -64,69 -165,103 -301,103 -76,0 -154,-20 -234,-60l0 -74c83,46 161,69 236,69 217,0 325,-115 325,-344l0 -102 -3 0c-62,107 -156,160 -283,160 -97,0 -176,-35 -237,-105 -61,-70 -92,-168 -92,-293 0,-125 33,-228 99,-307 66,-79 153,-119 261,-119 116,0 199,48 251,143l3 0 0 -124 71 0 0 728zm-71 -426c0,-70 -23,-130 -70,-180 -47,-51 -108,-76 -183,-76 -86,0 -156,32 -209,97 -53,65 -79,151 -79,257 0,107 24,191 73,250 48,59 112,89 191,89 84,0 152,-27 202,-82 50,-55 75,-122 75,-201l0 -156z"/>
  <path id="9" class="fil0" d="M8425 773c0,108 25,192 75,253 50,61 118,91 205,91 88,0 174,-32 257,-97l0 75c-81,58 -172,87 -272,87 -101,0 -183,-36 -245,-109 -62,-73 -94,-175 -94,-308 0,-114 33,-211 98,-289 65,-78 150,-118 254,-118 98,0 173,34 225,103 52,69 78,162 78,281l0 31 -581 0zm508 -64c-3,-90 -25,-161 -65,-211 -40,-50 -96,-75 -167,-75 -74,0 -135,25 -183,74 -48,49 -78,120 -89,212l504 0z"/>
  <path id="10" class="fil0" d="M10187 1163l0 -473c0,-99 -15,-168 -46,-208 -31,-40 -80,-60 -147,-60 -62,0 -115,27 -160,80 -45,53 -68,120 -68,200l0 460 -71 0 0 -478c0,-175 -67,-262 -200,-262 -64,0 -117,27 -160,80 -42,53 -64,123 -64,207l0 453 -71 0 0 -786 71 0 0 131 3 0c55,-100 135,-150 240,-150 57,0 106,17 147,50 41,33 68,76 83,130 25,-57 60,-101 106,-132 46,-31 95,-47 149,-47 172,0 258,106 258,319l0 486 -71 0z"/>
  <path id="11" class="fil0" d="M10510 773c0,108 25,192 75,253 50,61 118,91 205,91 88,0 174,-32 257,-97l0 75c-81,58 -172,87 -272,87 -101,0 -183,-36 -245,-109 -62,-73 -94,-175 -94,-308 0,-114 33,-211 98,-289 65,-78 150,-118 254,-118 98,0 173,34 225,103 52,69 78,162 78,281l0 31 -581 0zm508 -64c-3,-90 -25,-161 -65,-211 -40,-50 -96,-75 -167,-75 -74,0 -135,25 -183,74 -48,49 -78,120 -89,212l504 0z"/>
  <path id="12" class="fil0" d="M11821 1163l0 -457c0,-189 -68,-283 -204,-283 -76,0 -138,28 -186,83 -48,56 -73,124 -73,206l0 451 -71 0 0 -786 71 0 0 143 3 0c57,-108 147,-162 269,-162 85,0 150,28 195,85 45,56 68,137 68,242l0 478 -71 0z"/>
  <path id="13" class="fil0" d="M12439 1152c-37,18 -72,26 -104,26 -116,0 -174,-70 -174,-209l0 -528 -141 0 0 -64 141 0 0 -204c11,-4 23,-8 35,-12 12,-4 24,-7 35,-12l0 228 207 0 0 64 -207 0 0 518c0,54 9,94 26,118 17,24 46,36 87,36 29,0 61,-9 95,-28l0 66z"/>
  <polygon id="14" class="fil0" points="13339,132 13339,1163 13263,1163 13263,132 12946,132 12946,63 13657,63 13657,132 "/>
  <path id="15" class="fil0" d="M13897 1182c-115,0 -205,-38 -272,-113 -67,-75 -100,-173 -100,-294 0,-130 35,-232 105,-306 70,-74 162,-111 276,-111 112,0 200,37 265,110 65,73 97,174 97,304 0,122 -33,221 -99,297 -66,76 -157,113 -272,113zm5 -759c-92,0 -166,31 -221,94 -55,62 -83,149 -83,260 0,103 27,185 80,248 54,62 127,94 220,94 95,0 167,-31 218,-92 51,-61 77,-146 77,-255 0,-112 -25,-198 -76,-258 -51,-60 -123,-90 -216,-90z"/>
  <path id="16" class="fil0" d="M14778 1182c-115,0 -205,-38 -272,-113 -67,-75 -100,-173 -100,-294 0,-130 35,-232 105,-306 70,-74 162,-111 276,-111 112,0 200,37 265,110 65,73 97,174 97,304 0,122 -33,221 -99,297 -66,76 -157,113 -272,113zm5 -759c-92,0 -166,31 -221,94 -55,62 -83,149 -83,260 0,103 27,185 80,248 54,62 127,94 220,94 95,0 167,-31 218,-92 51,-61 77,-146 77,-255 0,-112 -25,-198 -76,-258 -51,-60 -123,-90 -216,-90z"/>
  <polygon id="17" class="fil0" points="15344,1163 15344,0 15415,0 15415,1163 "/>
 </g>
</svg>
