<?xml version="1.0" encoding="iso-8859-1"?>
<!-- Generator: Adobe Illustrator 18.1.1, SVG Export Plug-In . SVG Version: 6.00 Build 0)  -->
<svg xmlns="http://www.w3.org/2000/svg" xmlns:xlink="http://www.w3.org/1999/xlink" version="1.1" id="Capa_1" x="0px" y="0px" viewBox="0 0 111.36 111.36" style="enable-background:new 0 0 111.36 111.36;" xml:space="preserve" width="512px" height="512px">
<g>
	<g>
		<path d="M79.748,13.344c2.147-0.662,4.012-1.453,5.071-2.405c0,0,0.107,2.97,1.696,6.234    c8.697,3.335,9.785,11.034,9.538,19.011v7.333c0.458-0.233,0.927-0.326,1.374-0.208c1.503,0.404,0.698,4.831,0.007,7.473    c-0.673,2.57-2.613,4.098-4.098,3.826c-1.106,6.868-3.507,11.81-6.861,15.088c14.53,5.222,24.884,18.578,24.884,34.285h-9.91    c-1.113-15.432-10.765-29.293-25.113-36.257c2.222-3.346,3.847-7.423,4.853-12.2c2.258-1.045,4.116-3.357,4.892-6.313    c0.673-2.541,2.595-9.878-1.403-12.143v-4.753C84.815,28.06,85.051,19.567,79.748,13.344z M34.901,67.778    c-2.072-3.293-3.579-7.347-4.559-12.25c-2.426-1.102-4.524-3.561-5.29-6.488c-0.787-3.003-2.065-9.792,1.786-11.961v-4.864    c0-1.46-0.039-2.849-0.079-4.169c-0.132-4.531-0.043-8.425,1.177-11.621c-14.806,2.434-12.483,9.037-12.483,19.759v7.333    c-0.458-0.233-0.923-0.326-1.367-0.208c-1.503,0.404-1.049,4.663-0.358,7.308c0.68,2.591,2.992,4.287,4.474,3.987    c1.124,7.219,3.375,12.018,6.478,15.16C10.257,75.043,0,88.349,0,103.985h9.91C11.019,88.621,20.628,74.768,34.901,67.778z     M70.543,69.17c3.701-3.622,6.352-9.058,7.569-16.634c1.628,0.297,3.769-1.385,4.513-4.219c0.762-2.91,1.65-7.795-0.011-8.239    c-0.49-0.132-1.002-0.032-1.51,0.225v-8.088c0.272-8.793-0.934-17.282-10.515-20.958c-1.754-3.6-1.865-6.875-1.865-6.875    c-4.316,3.887-20.704,5.461-20.704,5.461l0.186,0.05c-20.779,2.137-17.78,9.606-17.78,22.321v8.088    c-0.508-0.258-1.016-0.361-1.51-0.225c-1.657,0.444-1.156,5.143-0.39,8.056c0.748,2.856,3.296,4.728,4.928,4.398    c1.242,7.959,3.726,13.256,7.14,16.713c-15.901,5.816-27.214,20.5-27.214,37.732h84.608C97.978,89.656,86.562,74.921,70.543,69.17    z" fill="#337ab7"/>
	</g>
</g>
<g>
</g>
<g>
</g>
<g>
</g>
<g>
</g>
<g>
</g>
<g>
</g>
<g>
</g>
<g>
</g>
<g>
</g>
<g>
</g>
<g>
</g>
<g>
</g>
<g>
</g>
<g>
</g>
<g>
</g>
</svg>
